<svg xmlns="http://www.w3.org/2000/svg" xmlns:xlink="http://www.w3.org/1999/xlink" width="224" zoomAndPan="magnify" viewBox="0 0 168 48" height="64" preserveAspectRatio="xMidYMid meet" version="1.0"><defs><g/></defs><g fill="#000000" fill-opacity="1"><g transform="translate(23.407084, 35.482279)"><g><path d="M 1.488281 -0.269531 L 1.488281 0 L 14.671875 0 L 14.671875 -0.269531 C 12.5 -0.269531 11.160156 -1.457031 11.160156 -3.421875 L 11.160156 -12.054688 L 21.339844 -12.054688 L 21.339844 -3.421875 C 21.339844 -1.457031 20 -0.269531 17.828125 -0.269531 L 17.828125 0 L 31.011719 0 L 31.011719 -0.269531 C 28.839844 -0.269531 27.5 -1.457031 27.5 -3.421875 L 27.5 -22.230469 C 27.5 -24.195312 28.839844 -25.386719 31.011719 -25.386719 L 31.011719 -25.652344 L 17.828125 -25.652344 L 17.828125 -25.386719 C 20 -25.386719 21.339844 -24.195312 21.339844 -22.230469 L 21.339844 -12.320312 L 11.160156 -12.320312 L 11.160156 -22.230469 C 11.160156 -24.195312 12.5 -25.386719 14.671875 -25.386719 L 14.671875 -25.652344 L 1.488281 -25.652344 L 1.488281 -25.386719 C 3.660156 -25.386719 5 -24.195312 5 -22.230469 L 5 -3.421875 C 5 -1.457031 3.660156 -0.269531 1.488281 -0.269531 Z M 1.488281 -0.269531 "/></g></g></g><g fill="#000000" fill-opacity="1"><g transform="translate(55.901159, 35.482279)"><g><path d="M 15.296875 0.207031 C 20.65625 0.207031 25.148438 -2.589844 25.148438 -8.125 L 25.148438 -22.378906 C 25.148438 -24.253906 26.429688 -25.386719 28.511719 -25.386719 L 28.511719 -25.652344 L 21.488281 -25.652344 L 21.488281 -25.386719 C 23.628906 -25.386719 24.878906 -24.253906 24.878906 -22.378906 L 24.878906 -8.125 C 24.878906 -2.113281 19.34375 -0.148438 16.457031 -0.148438 C 11.785156 -0.148438 10.953125 -6.367188 10.953125 -10.59375 L 10.953125 -22.441406 C 10.953125 -24.195312 12.144531 -25.386719 14.316406 -25.386719 L 14.316406 -25.652344 L 1.488281 -25.652344 L 1.488281 -25.386719 C 3.632812 -25.386719 4.882812 -24.195312 4.882812 -22.230469 L 4.882812 -8.332031 C 4.882812 -3.453125 10.328125 0.207031 15.296875 0.207031 Z M 15.296875 0.207031 "/></g></g></g><g fill="#000000" fill-opacity="1"><g transform="translate(85.895689, 35.482279)"><g><path d="M 14.492188 0 C 16.042969 0 17.5 -0.269531 18.898438 -0.773438 C 21.546875 -1.546875 24.40625 -1.367188 24.492188 -0.269531 L 24.761719 -0.269531 L 24.761719 -8.273438 C 24.820312 -10.148438 26.101562 -11.28125 28.152344 -11.28125 L 28.152344 -11.546875 L 15.328125 -11.546875 L 15.328125 -11.28125 C 17.261719 -11.28125 18.660156 -10.207031 18.691406 -8.242188 L 18.691406 -1.25 C 17.589844 -0.773438 15.683594 -0.355469 14.492188 -0.355469 C 12.648438 -0.355469 7.558594 -1.578125 7.53125 -13.035156 C 7.558594 -24.492188 12.648438 -25.714844 14.492188 -25.714844 C 15.058594 -25.714844 16.367188 -25.59375 17.917969 -25.117188 C 21.160156 -24.015625 22.917969 -21.933594 23.003906 -18.78125 L 23.273438 -18.78125 L 23.273438 -25.804688 L 23.003906 -25.804688 C 22.917969 -24.671875 21.695312 -24.464844 18.898438 -25.296875 C 17.5 -25.804688 16.042969 -26.070312 14.492188 -26.070312 C 11.070312 -26.070312 7.855469 -24.730469 5.386719 -22.351562 C 3.007812 -19.941406 1.667969 -17.023438 1.488281 -13.808594 L 1.488281 -12.320312 C 1.875 -5.417969 7.617188 0 14.492188 0 Z M 14.492188 0 "/></g></g></g><g fill="#000000" fill-opacity="1"><g transform="translate(115.533142, 35.482279)"><g><path d="M 14.523438 0 C 21.726562 0 27.558594 -5.832031 27.558594 -13.035156 C 27.558594 -20.207031 21.695312 -26.070312 14.523438 -26.070312 C 7.351562 -26.070312 1.488281 -20.207031 1.488281 -13.035156 C 1.488281 -5.953125 7.261719 0 14.523438 0 Z M 14.523438 -0.355469 C 12.679688 -0.355469 7.558594 -1.308594 7.558594 -13.035156 C 7.589844 -24.492188 12.679688 -25.714844 14.523438 -25.714844 C 16.398438 -25.714844 21.488281 -24.492188 21.488281 -13.035156 C 21.488281 -1.308594 16.398438 -0.355469 14.523438 -0.355469 Z M 14.523438 -0.355469 "/></g></g></g></svg>